<svg width="66" height="26" viewBox="0 0 66 26" fill="none" xmlns="http://www.w3.org/2000/svg">
<path d="M30.0168 11.9342V19.6782H27.5582V0.550228H34.0755C34.8537 0.533251 35.6275 0.67088 36.3521 0.955142C37.0768 1.2394 37.7378 1.66465 38.2968 2.20623C39.4408 3.23556 40.0835 4.70756 40.0595 6.24356C40.0763 7.00764 39.9274 7.76629 39.6232 8.46736C39.3189 9.16844 38.8664 9.79532 38.2968 10.3049C37.1555 11.3929 35.7475 11.9369 34.0755 11.9342H30.0168ZM30.0168 2.90489V9.58489H34.1368C35.0515 9.61156 35.9315 9.25423 36.5688 8.59556C37.8595 7.34223 37.8915 5.27556 36.6328 3.98489L36.5688 3.92089C36.2584 3.5891 35.8811 3.32698 35.4619 3.15183C35.0427 2.97669 34.591 2.89252 34.1368 2.90489H30.0168ZM45.7235 6.16356C47.5422 6.16356 48.9742 6.64889 50.0248 7.61956C51.0755 8.59023 51.6008 9.92356 51.6008 11.6116V19.6809H49.2515V17.8622H49.1448C48.1262 19.3582 46.7715 20.1076 45.0835 20.1076C43.6408 20.1076 42.4355 19.6809 41.4648 18.8249C40.9994 18.4322 40.6273 17.9408 40.3754 17.3864C40.1236 16.832 39.9983 16.2284 40.0088 15.6196C40.0088 14.2649 40.5208 13.1876 41.5448 12.3876C42.5688 11.5876 43.9342 11.1849 45.6462 11.1849C47.1048 11.1849 48.3075 11.4516 49.2515 11.9849V11.4222C49.2545 11.0072 49.1649 10.5967 48.9891 10.2207C48.8133 9.84477 48.5559 9.51275 48.2355 9.24889C47.5854 8.66202 46.7379 8.34204 45.8622 8.35289C44.4915 8.35289 43.4035 8.93156 42.6035 10.0889L40.4408 8.72623C41.6275 7.01689 43.3902 6.16356 45.7235 6.16356ZM42.5422 15.6729C42.541 15.9854 42.6141 16.2937 42.7555 16.5723C42.8969 16.851 43.1026 17.092 43.3555 17.2756C43.8995 17.7022 44.5742 17.9316 45.2648 17.9156C46.3023 17.9129 47.2965 17.4997 48.0302 16.7662C48.8435 15.9982 49.2515 15.1022 49.2515 14.0676C48.4835 13.4569 47.4168 13.1502 46.0462 13.1502C45.0488 13.1502 44.2142 13.3902 43.5475 13.8729C42.8782 14.3662 42.5422 14.9609 42.5422 15.6729ZM65.0942 6.59023L56.8888 25.4516H54.3528L57.3982 18.8516L51.9982 6.59023H54.6702L58.5715 15.9929H58.6248L62.4195 6.59023H65.0942Z" fill="#5F6368"/>
<path d="M22.4488 12.4788C22.4488 11.7295 22.3874 10.9828 22.2594 10.2441H11.8941V14.4761H17.8301C17.7089 15.1521 17.452 15.7965 17.0748 16.3703C16.6976 16.9441 16.2079 17.4355 15.6354 17.8148V20.5641H19.1794C21.2541 18.6548 22.4488 15.8255 22.4488 12.4788Z" fill="#4285F4"/>
<path d="M11.8944 23.22C14.8597 23.22 17.3584 22.2467 19.1797 20.5667L15.6357 17.8174C14.6491 18.4867 13.3797 18.868 11.8944 18.868C9.02774 18.868 6.59574 16.9347 5.72374 14.332H2.07574V17.164C2.99 18.9845 4.3924 20.515 6.12628 21.5844C7.86017 22.6538 9.85725 23.2201 11.8944 23.22Z" fill="#34A853"/>
<path d="M5.72645 14.3323C5.26516 12.9675 5.26516 11.489 5.72645 10.1243V7.29492H2.07578C1.30647 8.8266 0.905823 10.5169 0.905823 12.2309C0.905823 13.9449 1.30647 15.6352 2.07578 17.1669L5.72645 14.3323Z" fill="#FBBC04"/>
<path d="M11.8944 5.5909C13.4615 5.56585 14.9757 6.15773 16.1104 7.2389L19.2491 4.1029C17.2586 2.23544 14.6236 1.20932 11.8944 1.2389C9.85725 1.2388 7.86017 1.8051 6.12628 2.87453C4.3924 3.94396 2.99 5.47441 2.07574 7.2949L5.72641 10.1269C6.59574 7.52157 9.02774 5.5909 11.8944 5.5909Z" fill="#EA4335"/>
</svg>
