<svg width="25" height="24" viewBox="0 0 25 24" fill="none" xmlns="http://www.w3.org/2000/svg">
<path d="M22.2392 11.07C22.1892 10.56 21.7592 10.18 21.2492 10.18H13.6992C13.1492 10.18 12.6992 10.63 12.6992 11.18V12.89C12.6992 13.44 13.1492 13.89 13.6992 13.89H18.2092C18.0992 14.81 17.4992 16.2 16.1692 17.13C15.3192 17.72 14.1892 18.13 12.6992 18.13C12.6292 18.13 12.5692 18.13 12.4992 18.12C9.94922 18.04 7.78922 16.33 7.00922 13.98C6.79922 13.35 6.67922 12.69 6.67922 12C6.67922 11.31 6.79922 10.64 6.99922 10.02C7.05922 9.83999 7.12922 9.66001 7.20922 9.48001C8.12922 7.41001 10.1392 5.95 12.4992 5.88C12.5592 5.87 12.6292 5.87 12.6992 5.87C14.1292 5.87 15.1992 6.33999 15.9492 6.85999C16.3392 7.12999 16.8592 7.06999 17.1992 6.73999L18.5892 5.38C19.0292 4.95 18.9892 4.21999 18.4892 3.85999C16.8992 2.68999 14.9592 2 12.6992 2C12.6292 2 12.5692 2.00001 12.4992 2.01001C8.66922 2.08001 5.37922 4.30001 3.76922 7.51001C3.08922 8.87001 2.69922 10.39 2.69922 12C2.69922 13.61 3.08922 15.13 3.76922 16.49H3.77922C5.38922 19.7 8.67922 21.92 12.4992 21.99C12.5692 22 12.6292 22 12.6992 22C15.3992 22 17.6692 21.11 19.3192 19.58C21.2092 17.83 22.2992 15.27 22.2992 12.22C22.2992 11.79 22.2792 11.42 22.2392 11.07Z" fill="#21D4B4"/>
</svg>
