<svg width="25" height="25" viewBox="0 0 25 25" fill="none" xmlns="http://www.w3.org/2000/svg">
<path d="M12.5 22.1496C12.19 22.1496 11.89 22.1096 11.64 22.0196C7.82 20.7096 1.75 16.0596 1.75 9.18961C1.75 5.68961 4.58 2.84961 8.06 2.84961C9.75 2.84961 11.33 3.50961 12.5 4.68961C13.67 3.50961 15.25 2.84961 16.94 2.84961C20.42 2.84961 23.25 5.69961 23.25 9.18961C23.25 16.0696 17.18 20.7096 13.36 22.0196C13.11 22.1096 12.81 22.1496 12.5 22.1496ZM8.06 4.34961C5.41 4.34961 3.25 6.51961 3.25 9.18961C3.25 16.0196 9.82 19.8196 12.13 20.6096C12.31 20.6696 12.7 20.6696 12.88 20.6096C15.18 19.8196 21.76 16.0296 21.76 9.18961C21.76 6.51961 19.6 4.34961 16.95 4.34961C15.43 4.34961 14.02 5.05961 13.11 6.28961C12.83 6.66961 12.19 6.66961 11.91 6.28961C10.98 5.04961 9.58 4.34961 8.06 4.34961Z" fill="#6F7384"/>
</svg>
